 http://www.shotpix.com/images/21124698539878056015.png

General
Complete name                            : Lil Wayne ft. Detail - No Worries (Explicit) 720p [Sbyky].mp4
Format                                   : MPEG-4
Format profile                           : Base Media / Version 2
Codec ID                                 : mp42
File size                                : 83.0 MiB
Duration                                 : 3mn 49s
Overall bit rate mode                    : Variable
Overall bit rate                         : 3 033 Kbps
Encoded date                             : UTC 2012-11-27 04:37:11
Tagged date                              : UTC 2012-11-27 04:37:11
gsst                                     : 0
gstd                                     : 229621
gssd                                     : B4A7D6702HH1358198676858703
gshh                                     :

Video
ID                                       : 1
Format                                   : AVC
Format/Info                              : Advanced Video Codec
Format profile                           : High@L3.1
Format settings, CABAC                   : Yes
Format settings, ReFrames                : 1 frame
Codec ID                                 : avc1
Codec ID/Info                            : Advanced Video Coding
Duration                                 : 3mn 49s
Bit rate                                 : 2 839 Kbps
Maximum bit rate                         : 7 875 Kbps
Width                                    : 1 280 pixels
Height                                   : 720 pixels
Display aspect ratio                     : 16:9
Frame rate mode                          : Constant
Frame rate                               : 23.976 fps
Color space                              : YUV
Chroma subsampling                       : 4:2:0
Bit depth                                : 8 bits
Scan type                                : Progressive
Bits/(Pixel*Frame)                       : 0.128
Stream size                              : 77.7 MiB (94%)
Tagged date                              : UTC 2012-11-27 04:37:12

Audio
ID                                       : 2
Format                                   : AAC
Format/Info                              : Advanced Audio Codec
Format profile                           : LC
Codec ID                                 : 40
Duration                                 : 3mn 49s
Bit rate mode                            : Variable
Bit rate                                 : 192 Kbps
Maximum bit rate                         : 202 Kbps
Channel(s)                               : 2 channels
Channel positions                        : Front: L R
Sampling rate                            : 44.1 KHz
Compression mode                         : Lossy
Stream size                              : 5.25 MiB (6%)
Title                                    : IsoMedia File Produced by Google, 5-11-2011
Encoded date                             : UTC 2012-11-27 04:37:12
Tagged date                              : UTC 2012-11-27 04:37:12

Shared By Sbyky 
http://www.shotpix.com/images/36391391396177178781.gif 
http://www.shotpix.com/images/54442018924177629170.gif